<svg xmlns="http://www.w3.org/2000/svg" version="1.1" xmlns:xlink="http://www.w3.org/1999/xlink" xmlns:svgjs="http://svgjs.com/svgjs" width="1440" height="567" preserveAspectRatio="none" viewBox="0 0 1440 567"><g mask="url(&quot;#SvgjsMask2274&quot;)" fill="none"><rect width="1440" height="567" x="0" y="0" fill="rgba(0, 0, 0, 1)"></rect><use xlink:href="#SvgjsG2281" transform="translate(0, 0)" fill="rgba(60, 60, 60, 0.54)"></use><use xlink:href="#SvgjsG2281" transform="translate(0, 180)" fill="rgba(60, 60, 60, 0.54)"></use><use xlink:href="#SvgjsG2281" transform="translate(0, 360)" fill="rgba(60, 60, 60, 0.54)"></use><use xlink:href="#SvgjsG2281" transform="translate(0, 540)" fill="rgba(60, 60, 60, 0.54)"></use><use xlink:href="#SvgjsG2281" transform="translate(180, 0)" fill="rgba(60, 60, 60, 0.54)"></use><use xlink:href="#SvgjsG2281" transform="translate(180, 180)" fill="rgba(60, 60, 60, 0.54)"></use><use xlink:href="#SvgjsG2281" transform="translate(180, 360)" fill="rgba(60, 60, 60, 0.54)"></use><use xlink:href="#SvgjsG2281" transform="translate(180, 540)" fill="rgba(60, 60, 60, 0.54)"></use><use xlink:href="#SvgjsG2281" transform="translate(360, 0)" fill="rgba(60, 60, 60, 0.54)"></use><use xlink:href="#SvgjsG2281" transform="translate(360, 180)" fill="rgba(60, 60, 60, 0.54)"></use><use xlink:href="#SvgjsG2281" transform="translate(360, 360)" fill="rgba(60, 60, 60, 0.54)"></use><use xlink:href="#SvgjsG2281" transform="translate(360, 540)" fill="rgba(60, 60, 60, 0.54)"></use><use xlink:href="#SvgjsG2281" transform="translate(540, 0)" fill="rgba(60, 60, 60, 0.54)"></use><use xlink:href="#SvgjsG2281" transform="translate(540, 180)" fill="rgba(60, 60, 60, 0.54)"></use><use xlink:href="#SvgjsG2281" transform="translate(540, 360)" fill="rgba(60, 60, 60, 0.54)"></use><use xlink:href="#SvgjsG2281" transform="translate(540, 540)" fill="rgba(60, 60, 60, 0.54)"></use><use xlink:href="#SvgjsG2281" transform="translate(720, 0)" fill="rgba(60, 60, 60, 0.54)"></use><use xlink:href="#SvgjsG2281" transform="translate(720, 180)" fill="rgba(60, 60, 60, 0.54)"></use><use xlink:href="#SvgjsG2281" transform="translate(720, 360)" fill="rgba(60, 60, 60, 0.54)"></use><use xlink:href="#SvgjsG2281" transform="translate(720, 540)" fill="rgba(60, 60, 60, 0.54)"></use><use xlink:href="#SvgjsG2281" transform="translate(900, 0)" fill="rgba(60, 60, 60, 0.54)"></use><use xlink:href="#SvgjsG2281" transform="translate(900, 180)" fill="rgba(60, 60, 60, 0.54)"></use><use xlink:href="#SvgjsG2281" transform="translate(900, 360)" fill="rgba(60, 60, 60, 0.54)"></use><use xlink:href="#SvgjsG2281" transform="translate(900, 540)" fill="rgba(60, 60, 60, 0.54)"></use><use xlink:href="#SvgjsG2281" transform="translate(1080, 0)" fill="rgba(60, 60, 60, 0.54)"></use><use xlink:href="#SvgjsG2281" transform="translate(1080, 180)" fill="rgba(60, 60, 60, 0.54)"></use><use xlink:href="#SvgjsG2281" transform="translate(1080, 360)" fill="rgba(60, 60, 60, 0.54)"></use><use xlink:href="#SvgjsG2281" transform="translate(1080, 540)" fill="rgba(60, 60, 60, 0.54)"></use><use xlink:href="#SvgjsG2281" transform="translate(1260, 0)" fill="rgba(60, 60, 60, 0.54)"></use><use xlink:href="#SvgjsG2281" transform="translate(1260, 180)" fill="rgba(60, 60, 60, 0.54)"></use><use xlink:href="#SvgjsG2281" transform="translate(1260, 360)" fill="rgba(60, 60, 60, 0.54)"></use><use xlink:href="#SvgjsG2281" transform="translate(1260, 540)" fill="rgba(60, 60, 60, 0.54)"></use></g><defs><mask id="SvgjsMask2274"><rect width="1440" height="567" fill="#ffffff"></rect></mask><g id="SvgjsG2278"><path d="M6.05 8.41L13.72 6.21l0.61 2.13-7.67 2.2z"></path><path d="M10.61 0.82l2.22 1.23-3.89 7.02L6.72 7.84z"></path><path d="M6.67 10.55L4.47 2.88l2.12-0.61L8.79 9.94zM-0.51 9.32l12.02 6.66-1.1 1.98L-1.6 11.3z"></path><path d="M1.09 5.48l1.98 1.1-3.1 5.59-1.98-1.1z m10.73 5.94l1.98 1.1-3.1 5.6-1.98-1.1z"></path></g><g id="SvgjsG2276"><path d="M2.6 8.4C4.2 5.51 11.77 1.36 11.77 1.36s0.48 8.62-1.12 11.51c-1.09 1.97-3.63 3.44-6.34 1.94-2.71-1.5-2.8-4.44-1.71-6.41z" fill-rule="evenodd"></path></g><g id="SvgjsG2279"><path d="M4.12 14.41C0.4 12.35-0.95 7.64 1.12 3.92 3.18 0.2 7.88-1.15 11.6 0.91S16.68 7.68 14.61 11.4c-2.06 3.72-6.77 5.07-10.49 3.01z m0.93-1.67c2.8 1.55 6.34 0.54 7.89-2.27 1.55-2.8 0.53-6.34-2.26-7.89-2.8-1.55-6.34-0.53-7.89 2.26-1.56 2.8-0.54 6.34 2.26 7.9z"></path><path d="M7.4 8.57a0.57 0.57 0 0 1-0.46-0.31 0.58 0.58 0 0 1-0.03-0.47L9.07 3.86a0.58 0.58 0 0 1 1.02 0.57l-1.69 3.04 3.28 0.22a0.58 0.58 0 0 1 0.54 0.61c-0.02 0.32-0.3 0.56-0.61 0.54l-4.21-0.27z"></path></g><g id="SvgjsG2275"><path d="M11.37 10.15a46.75 46.75 0 0 1-0.26-0.62c-0.07-0.17-0.14-0.35-0.22-0.51-0.44-1.03-0.93-2.02-1.78-2.6A2.81 2.81 0 0 0 8.9 6.29c-0.08-0.04-0.15-0.07-0.23-0.11-0.94-0.41-2.05-0.31-3.16-0.14l0.05 0.11c0.05 0.13 0.1 0.25 0.15 0.38C6.81 6.36 7.83 6.28 8.65 6.73c0.81 0.45 1.29 1.35 1.73 2.37a35.1 35.1 0 0 1 0.26 0.63c0.07 0.17 0.14 0.33 0.21 0.5C11.32 11.35 11.87 12.43 12.85 12.98c0.38 0.21 0.8 0.32 1.24 0.37l0.27-0.49c-0.45-0.03-0.88-0.12-1.26-0.33-0.82-0.45-1.29-1.36-1.73-2.38z"></path><path d="M11.37 9.29c0.01 0.03 0.03 0.07 0.04 0.11 0.05 0.13 0.11 0.25 0.16 0.38 0.4-0.06 0.79-0.11 1.16-0.13l-0.66 1.2c0.09 0.18 0.19 0.35 0.3 0.51L13.31 9.66c0.35 0.02 0.67 0.09 0.98 0.22l-1.23 2.22c0.06 0.05 0.13 0.09 0.2 0.13 0.08 0.04 0.16 0.08 0.24 0.11L14.73 10.12c0.28 0.2 0.52 0.45 0.73 0.75L15.73 10.38C15.46 10.04 15.15 9.75 14.77 9.54c-0.99-0.55-2.19-0.44-3.4-0.25z m-6.86-2.57c-0.02-0.04-0.03-0.08-0.05-0.12-0.05-0.12-0.1-0.24-0.16-0.36-1.1 0.17-2.12 0.24-2.93-0.21C1 5.82 0.7 5.51 0.44 5.13l-0.27 0.49C0.44 5.97 0.75 6.27 1.13 6.48c0.98 0.54 2.18 0.44 3.38 0.24z"></path><path d="M1.32 5.59c0.07 0.05 0.14 0.1 0.21 0.14 0.08 0.04 0.15 0.08 0.23 0.11L3 3.62c0.27 0.19 0.5 0.43 0.7 0.71-0.01 0.01-0.02 0.02-0.02 0.03l-0.92 1.67a5.82 5.82 0 0 0 0.59-0.02L4.01 4.82c0.28 0.5 0.52 1.07 0.76 1.66C5.3 7.76 5.85 9.1 6.98 9.72c0.98 0.54 2.18 0.44 3.39 0.25l-0.06-0.12c-0.05-0.12-0.1-0.24-0.15-0.36-0.39 0.06-0.77 0.11-1.13 0.12L9.68 8.43A5.82 5.82 0 0 0 9.38 7.92l-0.92 1.66c0 0.01-0.01 0.02-0.01 0.02-0.35-0.02-0.68-0.09-0.98-0.21L8.7 7.17a1.97 1.97 0 0 0-0.22-0.14c-0.07-0.04-0.15-0.07-0.23-0.11l-1.23 2.22c-0.27-0.19-0.5-0.44-0.71-0.71 0.01-0.01 0.02-0.02 0.03-0.03L7.26 6.73a5.63 5.63 0 0 0-0.59 0.02l-0.67 1.19c-0.28-0.5-0.52-1.07-0.76-1.66C4.71 4.99 4.16 3.66 3.03 3.03c-0.38-0.21-0.78-0.33-1.21-0.38l-0.27 0.48c0.35 0.03 0.69 0.1 1 0.24L1.32 5.59z"></path></g><g id="SvgjsG2280"><path d="M2.9 5.9L0.71 4.69 1.35 3.52l2.2 1.22-0.65 1.16zM5.86 2.9L5.17 0.49l1.27-0.36 0.69 2.4-1.27 0.37z m-3.3 5.96l0.36 1.27-2.41 0.69-0.36-1.27 2.41-0.69z m8.67-5.35l-1.16-0.64L11.29 0.67l1.16 0.65-1.22 2.19z m-6.47 8.94l1.16 0.64-1.21 2.2-1.17-0.65 1.22-2.19zM13.46 7.11l-0.39-1.28 2.43-0.68 0.37 1.27-2.41 0.69z m-3.29 5.94l0.67 2.43-1.27 0.37-0.69-2.41 1.29-0.39z m5.15-1.78l-0.64 1.16-2.2-1.22L13.13 10.05l2.19 1.22z"></path><path d="M4.25 5.9a4.18 4.18 0 1 0 7.32 4.06 4.18 4.18 0 1 0-7.32-4.06"></path></g><g id="SvgjsG2277"><path d="M13.63 12.76c0.26 0.14 0.61 0.07 0.79-0.17 0 0 0.25-0.33 0.49-0.76s0.39-0.81 0.39-0.81c0.11-0.28-0.02-0.62-0.28-0.76l-1.33-0.74c-0.26-0.14-0.44-0.46-0.4-0.7s0.3-0.94 0.59-1.02l1.47-0.42c0.28-0.08 0.47-0.39 0.41-0.67l-0.49-1.72c-0.11-0.28-0.43-0.43-0.71-0.36l-1.47 0.42c-0.28 0.08-0.63-0.01-0.76-0.21s-0.45-0.88-0.31-1.14L12.76 2.37c0.14-0.26 0.07-0.61-0.17-0.79 0 0-0.33-0.25-0.76-0.49s-0.81-0.39-0.81-0.39c-0.28-0.11-0.62 0.02-0.76 0.28l-0.74 1.33c-0.14 0.26-0.46 0.43-0.7 0.4s-0.94-0.3-1.02-0.59l-0.42-1.47C7.3 0.37 7 0.18 6.71 0.24l-1.73 0.49c-0.28 0.11-0.43 0.43-0.35 0.71l0.42 1.47c0.08 0.28-0.01 0.63-0.21 0.76s-0.88 0.45-1.14 0.31L2.37 3.24c-0.26-0.14-0.61-0.07-0.79 0.17 0 0-0.25 0.33-0.49 0.76s-0.39 0.81-0.39 0.81c-0.11 0.28 0.02 0.62 0.28 0.76l1.33 0.74c0.26 0.14 0.43 0.46 0.4 0.7-0.04 0.24-0.3 0.94-0.59 1.02l-1.47 0.42C0.37 8.7 0.18 9 0.24 9.29l0.49 1.73c0.11 0.28 0.43 0.43 0.71 0.35l1.47-0.42c0.28-0.08 0.63 0.01 0.76 0.21s0.45 0.88 0.31 1.14l-0.74 1.33c-0.14 0.26-0.07 0.61 0.17 0.79 0 0 0.33 0.25 0.76 0.49s0.81 0.39 0.81 0.39c0.28 0.11 0.62-0.02 0.77-0.28l0.73-1.33c0.14-0.26 0.46-0.44 0.7-0.39 0.24 0.04 0.94 0.3 1.02 0.58l0.42 1.47c0.08 0.28 0.39 0.47 0.67 0.41l1.73-0.49c0.28-0.11 0.43-0.43 0.35-0.71l-0.42-1.46c-0.08-0.28 0.01-0.63 0.21-0.77 0.2-0.14 0.88-0.45 1.14-0.31l1.33 0.74zM6.6 10.53c-1.4-0.77-1.9-2.53-1.13-3.93 0.77-1.4 2.53-1.9 3.93-1.13S11.3 8.01 10.53 9.4 7.99 11.3 6.6 10.53z"></path></g><g id="SvgjsG2281"><use xlink:href="#SvgjsG2275" transform="translate(0, 0) scale(0.9)" fill="rgba(60, 60, 60, 0.54)"></use><use xlink:href="#SvgjsG2276" transform="translate(0, 18) scale(0.9)" fill="rgba(60, 60, 60, 0.54)"></use><use xlink:href="#SvgjsG2277" transform="translate(0, 36) scale(0.9)" fill="rgba(60, 60, 60, 0.54)"></use><use xlink:href="#SvgjsG2278" transform="translate(0, 54) scale(0.9)" fill="rgba(60, 60, 60, 0.54)"></use><use xlink:href="#SvgjsG2275" transform="translate(0, 72) scale(0.9)" fill="rgba(60, 60, 60, 0.54)"></use><use xlink:href="#SvgjsG2275" transform="translate(0, 90) scale(0.9)" fill="rgba(60, 60, 60, 0.54)"></use><use xlink:href="#SvgjsG2279" transform="translate(0, 108) scale(0.9)" fill="rgba(60, 60, 60, 0.54)"></use><use xlink:href="#SvgjsG2277" transform="translate(0, 126) scale(0.9)" fill="rgba(60, 60, 60, 0.54)"></use><use xlink:href="#SvgjsG2275" transform="translate(0, 144) scale(0.9)" fill="rgba(60, 60, 60, 0.54)"></use><use xlink:href="#SvgjsG2276" transform="translate(0, 162) scale(0.9)" fill="rgba(60, 60, 60, 0.54)"></use><use xlink:href="#SvgjsG2280" transform="translate(18, 0) scale(0.9)" fill="rgba(60, 60, 60, 0.54)"></use><use xlink:href="#SvgjsG2277" transform="translate(18, 18) scale(0.9)" fill="rgba(60, 60, 60, 0.54)"></use><use xlink:href="#SvgjsG2277" transform="translate(18, 36) scale(0.9)" fill="rgba(60, 60, 60, 0.54)"></use><use xlink:href="#SvgjsG2279" transform="translate(18, 54) scale(0.9)" fill="rgba(60, 60, 60, 0.54)"></use><use xlink:href="#SvgjsG2277" transform="translate(18, 72) scale(0.9)" fill="rgba(60, 60, 60, 0.54)"></use><use xlink:href="#SvgjsG2279" transform="translate(18, 90) scale(0.9)" fill="rgba(60, 60, 60, 0.54)"></use><use xlink:href="#SvgjsG2278" transform="translate(18, 108) scale(0.9)" fill="rgba(60, 60, 60, 0.54)"></use><use xlink:href="#SvgjsG2280" transform="translate(18, 126) scale(0.9)" fill="rgba(60, 60, 60, 0.54)"></use><use xlink:href="#SvgjsG2280" transform="translate(18, 144) scale(0.9)" fill="rgba(60, 60, 60, 0.54)"></use><use xlink:href="#SvgjsG2279" transform="translate(18, 162) scale(0.9)" fill="rgba(60, 60, 60, 0.54)"></use><use xlink:href="#SvgjsG2278" transform="translate(36, 0) scale(0.9)" fill="rgba(60, 60, 60, 0.54)"></use><use xlink:href="#SvgjsG2275" transform="translate(36, 18) scale(0.9)" fill="rgba(60, 60, 60, 0.54)"></use><use xlink:href="#SvgjsG2276" transform="translate(36, 36) scale(0.9)" fill="rgba(60, 60, 60, 0.54)"></use><use xlink:href="#SvgjsG2277" transform="translate(36, 54) scale(0.9)" fill="rgba(60, 60, 60, 0.54)"></use><use xlink:href="#SvgjsG2279" transform="translate(36, 72) scale(0.9)" fill="rgba(60, 60, 60, 0.54)"></use><use xlink:href="#SvgjsG2275" transform="translate(36, 90) scale(0.9)" fill="rgba(60, 60, 60, 0.54)"></use><use xlink:href="#SvgjsG2276" transform="translate(36, 108) scale(0.9)" fill="rgba(60, 60, 60, 0.54)"></use><use xlink:href="#SvgjsG2279" transform="translate(36, 126) scale(0.9)" fill="rgba(60, 60, 60, 0.54)"></use><use xlink:href="#SvgjsG2280" transform="translate(36, 144) scale(0.9)" fill="rgba(60, 60, 60, 0.54)"></use><use xlink:href="#SvgjsG2277" transform="translate(36, 162) scale(0.9)" fill="rgba(60, 60, 60, 0.54)"></use><use xlink:href="#SvgjsG2277" transform="translate(54, 0) scale(0.9)" fill="rgba(60, 60, 60, 0.54)"></use><use xlink:href="#SvgjsG2277" transform="translate(54, 18) scale(0.9)" fill="rgba(60, 60, 60, 0.54)"></use><use xlink:href="#SvgjsG2279" transform="translate(54, 36) scale(0.9)" fill="rgba(60, 60, 60, 0.54)"></use><use xlink:href="#SvgjsG2275" transform="translate(54, 54) scale(0.9)" fill="rgba(60, 60, 60, 0.54)"></use><use xlink:href="#SvgjsG2280" transform="translate(54, 72) scale(0.9)" fill="rgba(60, 60, 60, 0.54)"></use><use xlink:href="#SvgjsG2279" transform="translate(54, 90) scale(0.9)" fill="rgba(60, 60, 60, 0.54)"></use><use xlink:href="#SvgjsG2280" transform="translate(54, 108) scale(0.9)" fill="rgba(60, 60, 60, 0.54)"></use><use xlink:href="#SvgjsG2276" transform="translate(54, 126) scale(0.9)" fill="rgba(60, 60, 60, 0.54)"></use><use xlink:href="#SvgjsG2275" transform="translate(54, 144) scale(0.9)" fill="rgba(60, 60, 60, 0.54)"></use><use xlink:href="#SvgjsG2277" transform="translate(54, 162) scale(0.9)" fill="rgba(60, 60, 60, 0.54)"></use><use xlink:href="#SvgjsG2277" transform="translate(72, 0) scale(0.9)" fill="rgba(60, 60, 60, 0.54)"></use><use xlink:href="#SvgjsG2279" transform="translate(72, 18) scale(0.9)" fill="rgba(60, 60, 60, 0.54)"></use><use xlink:href="#SvgjsG2278" transform="translate(72, 36) scale(0.9)" fill="rgba(60, 60, 60, 0.54)"></use><use xlink:href="#SvgjsG2278" transform="translate(72, 54) scale(0.9)" fill="rgba(60, 60, 60, 0.54)"></use><use xlink:href="#SvgjsG2277" transform="translate(72, 72) scale(0.9)" fill="rgba(60, 60, 60, 0.54)"></use><use xlink:href="#SvgjsG2280" transform="translate(72, 90) scale(0.9)" fill="rgba(60, 60, 60, 0.54)"></use><use xlink:href="#SvgjsG2278" transform="translate(72, 108) scale(0.9)" fill="rgba(60, 60, 60, 0.54)"></use><use xlink:href="#SvgjsG2279" transform="translate(72, 126) scale(0.9)" fill="rgba(60, 60, 60, 0.54)"></use><use xlink:href="#SvgjsG2277" transform="translate(72, 144) scale(0.9)" fill="rgba(60, 60, 60, 0.54)"></use><use xlink:href="#SvgjsG2277" transform="translate(72, 162) scale(0.9)" fill="rgba(60, 60, 60, 0.54)"></use><use xlink:href="#SvgjsG2277" transform="translate(90, 0) scale(0.9)" fill="rgba(60, 60, 60, 0.54)"></use><use xlink:href="#SvgjsG2280" transform="translate(90, 18) scale(0.9)" fill="rgba(60, 60, 60, 0.54)"></use><use xlink:href="#SvgjsG2276" transform="translate(90, 36) scale(0.9)" fill="rgba(60, 60, 60, 0.54)"></use><use xlink:href="#SvgjsG2276" transform="translate(90, 54) scale(0.9)" fill="rgba(60, 60, 60, 0.54)"></use><use xlink:href="#SvgjsG2276" transform="translate(90, 72) scale(0.9)" fill="rgba(60, 60, 60, 0.54)"></use><use xlink:href="#SvgjsG2276" transform="translate(90, 90) scale(0.9)" fill="rgba(60, 60, 60, 0.54)"></use><use xlink:href="#SvgjsG2275" transform="translate(90, 108) scale(0.9)" fill="rgba(60, 60, 60, 0.54)"></use><use xlink:href="#SvgjsG2280" transform="translate(90, 126) scale(0.9)" fill="rgba(60, 60, 60, 0.54)"></use><use xlink:href="#SvgjsG2279" transform="translate(90, 144) scale(0.9)" fill="rgba(60, 60, 60, 0.54)"></use><use xlink:href="#SvgjsG2275" transform="translate(90, 162) scale(0.9)" fill="rgba(60, 60, 60, 0.54)"></use><use xlink:href="#SvgjsG2277" transform="translate(108, 0) scale(0.9)" fill="rgba(60, 60, 60, 0.54)"></use><use xlink:href="#SvgjsG2276" transform="translate(108, 18) scale(0.9)" fill="rgba(60, 60, 60, 0.54)"></use><use xlink:href="#SvgjsG2276" transform="translate(108, 36) scale(0.9)" fill="rgba(60, 60, 60, 0.54)"></use><use xlink:href="#SvgjsG2280" transform="translate(108, 54) scale(0.9)" fill="rgba(60, 60, 60, 0.54)"></use><use xlink:href="#SvgjsG2275" transform="translate(108, 72) scale(0.9)" fill="rgba(60, 60, 60, 0.54)"></use><use xlink:href="#SvgjsG2276" transform="translate(108, 90) scale(0.9)" fill="rgba(60, 60, 60, 0.54)"></use><use xlink:href="#SvgjsG2280" transform="translate(108, 108) scale(0.9)" fill="rgba(60, 60, 60, 0.54)"></use><use xlink:href="#SvgjsG2278" transform="translate(108, 126) scale(0.9)" fill="rgba(60, 60, 60, 0.54)"></use><use xlink:href="#SvgjsG2278" transform="translate(108, 144) scale(0.9)" fill="rgba(60, 60, 60, 0.54)"></use><use xlink:href="#SvgjsG2279" transform="translate(108, 162) scale(0.9)" fill="rgba(60, 60, 60, 0.54)"></use><use xlink:href="#SvgjsG2276" transform="translate(126, 0) scale(0.9)" fill="rgba(60, 60, 60, 0.54)"></use><use xlink:href="#SvgjsG2276" transform="translate(126, 18) scale(0.9)" fill="rgba(60, 60, 60, 0.54)"></use><use xlink:href="#SvgjsG2276" transform="translate(126, 36) scale(0.9)" fill="rgba(60, 60, 60, 0.54)"></use><use xlink:href="#SvgjsG2276" transform="translate(126, 54) scale(0.9)" fill="rgba(60, 60, 60, 0.54)"></use><use xlink:href="#SvgjsG2276" transform="translate(126, 72) scale(0.9)" fill="rgba(60, 60, 60, 0.54)"></use><use xlink:href="#SvgjsG2277" transform="translate(126, 90) scale(0.9)" fill="rgba(60, 60, 60, 0.54)"></use><use xlink:href="#SvgjsG2279" transform="translate(126, 108) scale(0.9)" fill="rgba(60, 60, 60, 0.54)"></use><use xlink:href="#SvgjsG2279" transform="translate(126, 126) scale(0.9)" fill="rgba(60, 60, 60, 0.54)"></use><use xlink:href="#SvgjsG2280" transform="translate(126, 144) scale(0.9)" fill="rgba(60, 60, 60, 0.54)"></use><use xlink:href="#SvgjsG2275" transform="translate(126, 162) scale(0.9)" fill="rgba(60, 60, 60, 0.54)"></use><use xlink:href="#SvgjsG2279" transform="translate(144, 0) scale(0.9)" fill="rgba(60, 60, 60, 0.54)"></use><use xlink:href="#SvgjsG2280" transform="translate(144, 18) scale(0.9)" fill="rgba(60, 60, 60, 0.54)"></use><use xlink:href="#SvgjsG2279" transform="translate(144, 36) scale(0.9)" fill="rgba(60, 60, 60, 0.54)"></use><use xlink:href="#SvgjsG2277" transform="translate(144, 54) scale(0.9)" fill="rgba(60, 60, 60, 0.54)"></use><use xlink:href="#SvgjsG2275" transform="translate(144, 72) scale(0.9)" fill="rgba(60, 60, 60, 0.54)"></use><use xlink:href="#SvgjsG2277" transform="translate(144, 90) scale(0.9)" fill="rgba(60, 60, 60, 0.54)"></use><use xlink:href="#SvgjsG2276" transform="translate(144, 108) scale(0.9)" fill="rgba(60, 60, 60, 0.54)"></use><use xlink:href="#SvgjsG2275" transform="translate(144, 126) scale(0.9)" fill="rgba(60, 60, 60, 0.54)"></use><use xlink:href="#SvgjsG2280" transform="translate(144, 144) scale(0.9)" fill="rgba(60, 60, 60, 0.54)"></use><use xlink:href="#SvgjsG2280" transform="translate(144, 162) scale(0.9)" fill="rgba(60, 60, 60, 0.54)"></use><use xlink:href="#SvgjsG2280" transform="translate(162, 0) scale(0.9)" fill="rgba(60, 60, 60, 0.54)"></use><use xlink:href="#SvgjsG2277" transform="translate(162, 18) scale(0.9)" fill="rgba(60, 60, 60, 0.54)"></use><use xlink:href="#SvgjsG2276" transform="translate(162, 36) scale(0.9)" fill="rgba(60, 60, 60, 0.54)"></use><use xlink:href="#SvgjsG2279" transform="translate(162, 54) scale(0.9)" fill="rgba(60, 60, 60, 0.54)"></use><use xlink:href="#SvgjsG2278" transform="translate(162, 72) scale(0.9)" fill="rgba(60, 60, 60, 0.54)"></use><use xlink:href="#SvgjsG2277" transform="translate(162, 90) scale(0.9)" fill="rgba(60, 60, 60, 0.54)"></use><use xlink:href="#SvgjsG2280" transform="translate(162, 108) scale(0.9)" fill="rgba(60, 60, 60, 0.54)"></use><use xlink:href="#SvgjsG2276" transform="translate(162, 126) scale(0.9)" fill="rgba(60, 60, 60, 0.54)"></use><use xlink:href="#SvgjsG2275" transform="translate(162, 144) scale(0.9)" fill="rgba(60, 60, 60, 0.54)"></use><use xlink:href="#SvgjsG2278" transform="translate(162, 162) scale(0.9)" fill="rgba(60, 60, 60, 0.54)"></use></g></defs></svg>